{
  "accessors": [
    {
      "bufferView": 2,
      "componentType": 5126,
      "count": 2218,
      "max": [
        0.04967212677001953,
        0.04966163635253906,
        0.004000000189989805
      ],
      "min": [
        0.0,
        0.0,
        -0.004000000189989805
      ],
      "type": "VEC3"
    },
    {
      "bufferView": 2,
      "byteOffset": 26616,
      "componentType": 5126,
      "count": 2218,
      "max": [
        1.0,
        1.0,
        1.0
      ],
      "min": [
        -1.0,
        -1.0,
        -1.0
      ],
      "type": "VEC3"
    },
    {
      "bufferView": 1,
      "componentType": 5126,
      "count": 2218,
      "max": [
        1.0,
        1.0
      ],
      "min": [
        0.0,
        0.0
      ],
      "type": "VEC2"
    },
    {
      "bufferView": 0,
      "componentType": 5125,
      "count": 4596,
      "type": "SCALAR"
    },
    {
      "bufferView": 2,
      "byteOffset": 53232,
      "componentType": 5126,
      "count": 234,
      "max": [
        0.04967212677001953,
        0.04966163635253906,
        0.004000000189989805
      ],
      "min": [
        0.0,
        0.0,
        -0.004000000189989805
      ],
      "type": "VEC3"
    },
    {
      "bufferView": 2,
      "byteOffset": 56040,
      "componentType": 5126,
      "count": 234,
      "max": [
        1.0,
        1.0,
        1.0
      ],
      "min": [
        -1.0,
        -1.0,
        -1.0
      ],
      "type": "VEC3"
    },
    {
      "bufferView": 1,
      "byteOffset": 17744,
      "componentType": 5126,
      "count": 234,
      "max": [
        1.0,
        1.0
      ],
      "min": [
        0.0,
        0.0
      ],
      "type": "VEC2"
    },
    {
      "bufferView": 0,
      "byteOffset": 18384,
      "componentType": 5125,
      "count": 564,
      "type": "SCALAR"
    },
    {
      "bufferView": 2,
      "byteOffset": 58848,
      "componentType": 5126,
      "count": 1698,
      "max": [
        0.036407411098480225,
        0.03414236381649971,
        0.004999999888241291
      ],
      "min": [
        0.013264715671539307,
        0.015237092971801758,
        -0.004999999888241291
      ],
      "type": "VEC3"
    },
    {
      "bufferView": 2,
      "byteOffset": 79224,
      "componentType": 5126,
      "count": 1698,
      "max": [
        0.9999998807907104,
        1.0,
        1.0
      ],
      "min": [
        -1.0,
        -0.9997872114181519,
        -1.0
      ],
      "type": "VEC3"
    },
    {
      "bufferView": 1,
      "byteOffset": 19616,
      "componentType": 5126,
      "count": 1698,
      "max": [
        1.0,
        1.0
      ],
      "min": [
        0.0,
        0.0
      ],
      "type": "VEC2"
    },
    {
      "bufferView": 0,
      "byteOffset": 20640,
      "componentType": 5125,
      "count": 3444,
      "type": "SCALAR"
    },
    {
      "bufferView": 2,
      "byteOffset": 99600,
      "componentType": 5126,
      "count": 18,
      "max": [
        0.04967212677001953,
        0.04966163635253906,
        0.004000000189989805
      ],
      "min": [
        0.0,
        0.0,
        -0.004000000189989805
      ],
      "type": "VEC3"
    },
    {
      "bufferView": 2,
      "byteOffset": 99816,
      "componentType": 5126,
      "count": 18,
      "max": [
        0.7071067690849304,
        0.7071067690849304,
        1.0
      ],
      "min": [
        -0.7071067690849304,
        -0.7071067690849304,
        -1.0
      ],
      "type": "VEC3"
    },
    {
      "bufferView": 1,
      "byteOffset": 33200,
      "componentType": 5126,
      "count": 18,
      "max": [
        1.0,
        1.0
      ],
      "min": [
        0.0,
        0.0
      ],
      "type": "VEC2"
    },
    {
      "bufferView": 0,
      "byteOffset": 34416,
      "componentType": 5125,
      "count": 36,
      "type": "SCALAR"
    },
    {
      "bufferView": 2,
      "byteOffset": 100032,
      "componentType": 5126,
      "count": 1696,
      "max": [
        0.036407411098480225,
        0.035835374146699905,
        0.004999999888241291
      ],
      "min": [
        0.013264715671539307,
        0.016930103302001953,
        -0.004999999888241291
      ],
      "type": "VEC3"
    },
    {
      "bufferView": 2,
      "byteOffset": 120384,
      "componentType": 5126,
      "count": 1696,
      "max": [
        0.9999998807907104,
        1.0,
        1.0
      ],
      "min": [
        -1.0,
        -0.9997872114181519,
        -1.0
      ],
      "type": "VEC3"
    },
    {
      "bufferView": 1,
      "byteOffset": 33344,
      "componentType": 5126,
      "count": 1696,
      "max": [
        1.0,
        1.0
      ],
      "min": [
        0.0,
        0.0
      ],
      "type": "VEC2"
    },
    {
      "bufferView": 0,
      "byteOffset": 34560,
      "componentType": 5125,
      "count": 3444,
      "type": "SCALAR"
    },
    {
      "bufferView": 2,
      "byteOffset": 140736,
      "componentType": 5126,
      "count": 1678,
      "max": [
        0.023142695426940918,
        0.0189052764326334,
        0.004000000189989805
      ],
      "min": [
        0.0,
        0.0,
        -0.004000000189989805
      ],
      "type": "VEC3"
    },
    {
      "bufferView": 2,
      "byteOffset": 160872,
      "componentType": 5126,
      "count": 1678,
      "max": [
        0.9999998807907104,
        1.0,
        1.0
      ],
      "min": [
        -1.0,
        -0.9997878074645996,
        -1.0
      ],
      "type": "VEC3"
    },
    {
      "bufferView": 1,
      "byteOffset": 46912,
      "componentType": 5126,
      "count": 1678,
      "max": [
        1.0,
        1.0
      ],
      "min": [
        0.0,
        0.0
      ],
      "type": "VEC2"
    },
    {
      "bufferView": 0,
      "byteOffset": 48336,
      "componentType": 5125,
      "count": 3444,
      "type": "SCALAR"
    },
    {
      "bufferView": 2,
      "byteOffset": 181008,
      "componentType": 5126,
      "count": 13332,
      "max": [
        3.148484945297241,
        0.6454545855522156,
        0.10000000149011612
      ],
      "min": [
        0.027272729203104973,
        -0.003030303167179227,
        -0.10000000149011612
      ],
      "type": "VEC3"
    },
    {
      "bufferView": 2,
      "byteOffset": 340992,
      "componentType": 5126,
      "count": 13332,
      "max": [
        1.0,
        1.0,
        1.0
      ],
      "min": [
        -1.0,
        -1.0,
        -1.0
      ],
      "type": "VEC3"
    },
    {
      "bufferView": 1,
      "byteOffset": 60336,
      "componentType": 5126,
      "count": 13332,
      "max": [
        1.0,
        1.0
      ],
      "min": [
        0.0,
        0.0
      ],
      "type": "VEC2"
    },
    {
      "bufferView": 0,
      "byteOffset": 62112,
      "componentType": 5125,
      "count": 25008,
      "type": "SCALAR"
    },
    {
      "bufferView": 2,
      "byteOffset": 500976,
      "componentType": 5126,
      "count": 1678,
      "max": [
        0.023142695426940918,
        0.0189052764326334,
        0.004000000189989805
      ],
      "min": [
        0.0,
        0.0,
        -0.004000000189989805
      ],
      "type": "VEC3"
    },
    {
      "bufferView": 2,
      "byteOffset": 521112,
      "componentType": 5126,
      "count": 1678,
      "max": [
        0.9999998807907104,
        1.0,
        1.0
      ],
      "min": [
        -1.0,
        -0.9997878074645996,
        -1.0
      ],
      "type": "VEC3"
    },
    {
      "bufferView": 1,
      "byteOffset": 166992,
      "componentType": 5126,
      "count": 1678,
      "max": [
        1.0,
        1.0
      ],
      "min": [
        0.0,
        0.0
      ],
      "type": "VEC2"
    },
    {
      "bufferView": 0,
      "byteOffset": 162144,
      "componentType": 5125,
      "count": 3444,
      "type": "SCALAR"
    },
    {
      "bufferView": 2,
      "byteOffset": 541248,
      "componentType": 5126,
      "count": 1678,
      "max": [
        0.023142695426940918,
        0.0189052764326334,
        0.004000000189989805
      ],
      "min": [
        0.0,
        0.0,
        -0.004000000189989805
      ],
      "type": "VEC3"
    },
    {
      "bufferView": 2,
      "byteOffset": 561384,
      "componentType": 5126,
      "count": 1678,
      "max": [
        0.9999998807907104,
        1.0,
        1.0
      ],
      "min": [
        -1.0,
        -0.9997878074645996,
        -1.0
      ],
      "type": "VEC3"
    },
    {
      "bufferView": 1,
      "byteOffset": 180416,
      "componentType": 5126,
      "count": 1678,
      "max": [
        1.0,
        1.0
      ],
      "min": [
        0.0,
        0.0
      ],
      "type": "VEC2"
    },
    {
      "bufferView": 0,
      "byteOffset": 175920,
      "componentType": 5125,
      "count": 3444,
      "type": "SCALAR"
    }
  ],
  "asset": {
    "extras": {
      "author": "olmezerreg (https://sketchfab.com/olmezerreg)",
      "license": "CC-BY-4.0 (http://creativecommons.org/licenses/by/4.0/)",
      "source": "https://sketchfab.com/3d-models/neon-social-media-icons-twitter-f7e0dee3d11f4a62b3c7b9b4d042de86",
      "title": "neon social media icons: Twitter"
    },
    "generator": "Sketchfab-12.67.0",
    "version": "2.0"
  },
  "bufferViews": [
    {
      "buffer": 0,
      "byteLength": 189696,
      "name": "floatBufferViews",
      "target": 34963
    },
    {
      "buffer": 0,
      "byteLength": 193840,
      "byteOffset": 189696,
      "byteStride": 8,
      "name": "floatBufferViews",
      "target": 34962
    },
    {
      "buffer": 0,
      "byteLength": 581520,
      "byteOffset": 383536,
      "byteStride": 12,
      "name": "floatBufferViews",
      "target": 34962
    }
  ],
  "buffers": [
    {
      "byteLength": 965056,
      "uri": "scene.bin"
    }
  ],
  "extensionsUsed": [
    "KHR_materials_clearcoat"
  ],
  "materials": [
    {
      "doubleSided": true,
      "name": "Material.002",
      "pbrMetallicRoughness": {
        "baseColorFactor": [
          0.02415763244850478,
          0.3813260114325303,
          0.7379104087727308,
          1.0
        ],
        "metallicFactor": 0.0,
        "roughnessFactor": 0.8040408205773457
      }
    },
    {
      "doubleSided": true,
      "name": "Material.001",
      "pbrMetallicRoughness": {
        "baseColorFactor": [
          0.02415763244850478,
          0.3813260114325303,
          0.7379104087727308,
          1.0
        ],
        "metallicFactor": 0.0,
        "roughnessFactor": 0.8040408205773457
      }
    },
    {
      "doubleSided": true,
      "name": "Material.003",
      "pbrMetallicRoughness": {
        "metallicFactor": 0.0,
        "roughnessFactor": 0.8040408205773457
      }
    },
    {
      "doubleSided": true,
      "name": "Material.007",
      "pbrMetallicRoughness": {
        "baseColorFactor": [
          0.02415763244850478,
          0.3813260114325303,
          0.7379104087727308,
          1.0
        ],
        "metallicFactor": 0.0,
        "roughnessFactor": 0.8040408205773457
      }
    },
    {
      "doubleSided": true,
      "extensions": {
        "KHR_materials_clearcoat": {
          "clearcoatFactor": 1.0,
          "clearcoatRoughnessFactor": 0.04
        }
      },
      "name": "Material.006",
      "pbrMetallicRoughness": {
        "metallicFactor": 0.0,
        "roughnessFactor": 0.5969985225179213
      }
    },
    {
      "doubleSided": true,
      "name": "material_0",
      "pbrMetallicRoughness": {
        "baseColorFactor": [
          0.02415763244850478,
          0.3813260114325303,
          0.7379104087727308,
          1.0
        ],
        "metallicFactor": 0.0,
        "roughnessFactor": 0.761163197927877
      }
    },
    {
      "doubleSided": true,
      "name": "Material.009",
      "pbrMetallicRoughness": {
        "baseColorFactor": [
          0.02415763244850478,
          0.3813260114325303,
          0.7379104087727308,
          1.0
        ],
        "metallicFactor": 0.0,
        "roughnessFactor": 0.8040408205773457
      }
    },
    {
      "doubleSided": true,
      "name": "Material.005",
      "pbrMetallicRoughness": {
        "metallicFactor": 0.0,
        "roughnessFactor": 0.8040408205773457
      }
    },
    {
      "doubleSided": true,
      "name": "Material.004",
      "pbrMetallicRoughness": {
        "baseColorFactor": [
          0.02415763244850478,
          0.3813260114325303,
          0.7379104087727308,
          1.0
        ],
        "metallicFactor": 0.0,
        "roughnessFactor": 0.8040408205773457
      }
    }
  ],
  "meshes": [
    {
      "name": "Curve_Material.002_0",
      "primitives": [
        {
          "attributes": {
            "NORMAL": 1,
            "POSITION": 0,
            "TEXCOORD_0": 2
          },
          "indices": 3,
          "material": 0,
          "mode": 4
        }
      ]
    },
    {
      "name": "Curve.001_Material.001_0",
      "primitives": [
        {
          "attributes": {
            "NORMAL": 5,
            "POSITION": 4,
            "TEXCOORD_0": 6
          },
          "indices": 7,
          "material": 1,
          "mode": 4
        }
      ]
    },
    {
      "name": "Curve.002_Material.003_0",
      "primitives": [
        {
          "attributes": {
            "NORMAL": 9,
            "POSITION": 8,
            "TEXCOORD_0": 10
          },
          "indices": 11,
          "material": 2,
          "mode": 4
        }
      ]
    },
    {
      "name": "Curve.005_Material.007_0",
      "primitives": [
        {
          "attributes": {
            "NORMAL": 13,
            "POSITION": 12,
            "TEXCOORD_0": 14
          },
          "indices": 15,
          "material": 3,
          "mode": 4
        }
      ]
    },
    {
      "name": "Curve.006_Material.006_0",
      "primitives": [
        {
          "attributes": {
            "NORMAL": 17,
            "POSITION": 16,
            "TEXCOORD_0": 18
          },
          "indices": 19,
          "material": 4,
          "mode": 4
        }
      ]
    },
    {
      "name": "Curve.007_Material.008_0",
      "primitives": [
        {
          "attributes": {
            "NORMAL": 21,
            "POSITION": 20,
            "TEXCOORD_0": 22
          },
          "indices": 23,
          "material": 5,
          "mode": 4
        }
      ]
    },
    {
      "name": "Text_Material.009_0",
      "primitives": [
        {
          "attributes": {
            "NORMAL": 25,
            "POSITION": 24,
            "TEXCOORD_0": 26
          },
          "indices": 27,
          "material": 6,
          "mode": 4
        }
      ]
    },
    {
      "name": "twitter  with_Material.005_0",
      "primitives": [
        {
          "attributes": {
            "NORMAL": 29,
            "POSITION": 28,
            "TEXCOORD_0": 30
          },
          "indices": 31,
          "material": 7,
          "mode": 4
        }
      ]
    },
    {
      "name": "twitter blue_Material.004_0",
      "primitives": [
        {
          "attributes": {
            "NORMAL": 33,
            "POSITION": 32,
            "TEXCOORD_0": 34
          },
          "indices": 35,
          "material": 8,
          "mode": 4
        }
      ]
    }
  ],
  "nodes": [
    {
      "children": [
        1
      ],
      "matrix": [
        -0.7716694474220276,
        -1.240939095844653e-16,
        2.185961553736573e-16,
        0.0,
        2.1859615537365732e-16,
        -1.713450375855413e-16,
        0.7716694474220276,
        0.0,
        -1.2409390958446525e-16,
        0.7716694474220276,
        1.7134503758554136e-16,
        0.0,
        -0.468172162771225,
        -1.3648205483161589e-17,
        -0.1260339468717575,
        1.0
      ],
      "name": "Sketchfab_model"
    },
    {
      "children": [
        2
      ],
      "matrix": [
        0.009999999776482582,
        0.0,
        0.0,
        0.0,
        0.0,
        0.0,
        0.009999999776482582,
        0.0,
        0.0,
        -0.009999999776482582,
        0.0,
        0.0,
        0.0,
        0.0,
        0.0,
        1.0
      ],
      "name": "twiter.fbx"
    },
    {
      "children": [
        3,
        6,
        8,
        10,
        12,
        14,
        16,
        18,
        20,
        22,
        24
      ],
      "name": "RootNode"
    },
    {
      "children": [
        4
      ],
      "matrix": [
        -29.08647719990347,
        -5.518906457566863,
        -95.51711910171437,
        0.0,
        56.63930913109449,
        79.46723428563203,
        -21.83912397841966,
        0.0,
        77.11008775993375,
        -60.45246356562044,
        -19.98834696773717,
        0.0,
        407.6245422363281,
        590.38623046875,
        -100.54539489746094,
        1.0
      ],
      "name": "Light"
    },
    {
      "children": [
        5
      ],
      "matrix": [
        1.0,
        0.0,
        0.0,
        0.0,
        0.0,
        2.220446049250313e-16,
        1.0,
        0.0,
        0.0,
        -1.0,
        2.220446049250313e-16,
        0.0,
        0.0,
        0.0,
        0.0,
        1.0
      ],
      "name": "Object_4"
    },
    {
      "name": "Object_5"
    },
    {
      "children": [
        7
      ],
      "matrix": [
        -65.15581009765468,
        -44.527143038140764,
        -61.41704928909654,
        0.0,
        -32.40135466989878,
        89.5395708958271,
        -30.542085476036902,
        0.0,
        68.59207001076176,
        1.2755314797120858e-05,
        -72.76761921184276,
        0.0,
        645.423583984375,
        555.9989013671875,
        692.5791015625,
        1.0
      ],
      "name": "Camera"
    },
    {
      "name": "Object_7"
    },
    {
      "children": [
        9
      ],
      "matrix": [
        2700.0,
        0.0,
        0.0,
        0.0,
        0.0,
        2699.9999999999973,
        0.0001180207483741924,
        0.0,
        0.0,
        -0.0001180207483741924,
        2699.9999999999973,
        0.0,
        109.53449249267578,
        60.167991638183594,
        0.0,
        1.0
      ],
      "name": "Curve"
    },
    {
      "mesh": 0,
      "name": "Curve_Material.002_0"
    },
    {
      "children": [
        11
      ],
      "matrix": [
        2700.0,
        0.0,
        0.0,
        0.0,
        0.0,
        2699.9999999999973,
        0.0001180207483741924,
        0.0,
        0.0,
        -0.0001180207483741924,
        2699.9999999999973,
        0.0,
        -90.46552276611328,
        60.167991638183594,
        0.0,
        1.0
      ],
      "name": "Curve.001"
    },
    {
      "mesh": 1,
      "name": "Curve.001_Material.001_0"
    },
    {
      "children": [
        13
      ],
      "matrix": [
        2700.0,
        0.0,
        0.0,
        0.0,
        0.0,
        2699.9999999999973,
        0.0001180207483741924,
        0.0,
        0.0,
        -0.0001180207483741924,
        2699.9999999999973,
        0.0,
        -90.46552276611328,
        60.167991638183594,
        0.0,
        1.0
      ],
      "name": "Curve.002"
    },
    {
      "mesh": 2,
      "name": "Curve.002_Material.003_0"
    },
    {
      "children": [
        15
      ],
      "matrix": [
        2700.0,
        0.0,
        0.0,
        0.0,
        0.0,
        2699.9999999999973,
        0.0001180207483741924,
        0.0,
        0.0,
        -0.0001180207483741924,
        2699.9999999999973,
        0.0,
        -88.61995697021484,
        -174.91873168945313,
        0.0,
        1.0
      ],
      "name": "Curve.005"
    },
    {
      "mesh": 3,
      "name": "Curve.005_Material.007_0"
    },
    {
      "children": [
        17
      ],
      "matrix": [
        2700.0,
        0.0,
        0.0,
        0.0,
        0.0,
        2699.9999999999973,
        0.0001180207483741924,
        0.0,
        0.0,
        -0.0001180207483741924,
        2699.9999999999973,
        0.0,
        -88.61995697021484,
        -174.91893005371094,
        0.0,
        1.0
      ],
      "name": "Curve.006"
    },
    {
      "mesh": 4,
      "name": "Curve.006_Material.006_0"
    },
    {
      "children": [
        19
      ],
      "matrix": [
        2700.0,
        0.0,
        0.0,
        0.0,
        0.0,
        2699.9999999999973,
        0.0001180207483741924,
        0.0,
        0.0,
        -0.0001180207483741924,
        2699.9999999999973,
        0.0,
        146.23764038085938,
        -117.93535614013672,
        2.1424302758532576e-05,
        1.0
      ],
      "name": "Curve.007"
    },
    {
      "mesh": 5,
      "name": "Curve.007_Material.008_0"
    },
    {
      "children": [
        21
      ],
      "matrix": [
        -51.81739803561677,
        6.3458010644367696e-15,
        -0.001922729924203718,
        0.0,
        8.405154032393418e-11,
        51.81739807128901,
        -2.2650104118890967e-06,
        0.0,
        0.001922729924203716,
        -2.2650104134486173e-06,
        -51.817398035616726,
        0.0,
        241.4806365966797,
        -176.0543670654297,
        -20.915565490722656,
        1.0
      ],
      "name": "Text"
    },
    {
      "mesh": 6,
      "name": "Text_Material.009_0"
    },
    {
      "children": [
        23
      ],
      "matrix": [
        2700.0,
        0.0,
        0.0,
        0.0,
        0.0,
        2699.9999999999973,
        0.0001180207483741924,
        0.0,
        0.0,
        -0.0001180207483741924,
        2699.9999999999973,
        0.0,
        -290.46551513671875,
        -131.86587524414063,
        0.0,
        1.0
      ],
      "name": "twitter  with"
    },
    {
      "mesh": 7,
      "name": "twitter  with_Material.005_0"
    },
    {
      "children": [
        25
      ],
      "matrix": [
        2700.0,
        0.0,
        0.0,
        0.0,
        0.0,
        2699.9999999999973,
        0.0001180207483741924,
        0.0,
        0.0,
        -0.0001180207483741924,
        2699.9999999999973,
        0.0,
        -290.46551513671875,
        98.92465209960938,
        0.0,
        1.0
      ],
      "name": "twitter blue"
    },
    {
      "mesh": 8,
      "name": "twitter blue_Material.004_0"
    }
  ],
  "scene": 0,
  "scenes": [
    {
      "name": "Sketchfab_Scene",
      "nodes": [
        0
      ]
    }
  ]
}
