<?xml version="1.0" encoding="UTF-8"?>
<!DOCTYPE svg PUBLIC "-//W3C//DTD SVG 1.1//EN" "http://www.w3.org/Graphics/SVG/1.1/DTD/svg11.dtd">
<svg xmlns="http://www.w3.org/2000/svg" version="1.1" width="690px" height="690px" style="shape-rendering:geometricPrecision; text-rendering:geometricPrecision; image-rendering:optimizeQuality; fill-rule:evenodd; clip-rule:evenodd" xmlns:xlink="http://www.w3.org/1999/xlink">
<g><path style="opacity:0.998" fill="#000000" d="M 322.5,-0.5 C 337.5,-0.5 352.5,-0.5 367.5,-0.5C 487.65,10.8004 579.483,67.4671 643,169.5C 669.487,215.457 684.987,264.791 689.5,317.5C 689.5,335.5 689.5,353.5 689.5,371.5C 678.02,482.406 626.687,569.572 535.5,633C 484.355,666.326 428.355,685.159 367.5,689.5C 352.5,689.5 337.5,689.5 322.5,689.5C 204.972,678.674 114.139,624.007 50,525.5C 20.79,476.372 3.95662,423.372 -0.5,366.5C -0.5,351.833 -0.5,337.167 -0.5,322.5C 9.34533,213.618 58.012,126.785 145.5,62C 198.707,24.9852 257.707,4.15187 322.5,-0.5 Z"/></g>
<g><path style="opacity:1" fill="#3f6792" d="M 314.5,33.5 C 313.791,34.404 312.791,34.7373 311.5,34.5C 304.885,35.6353 298.218,36.302 291.5,36.5C 298.926,34.6789 306.592,33.6789 314.5,33.5 Z"/></g>
<g><path style="opacity:1" fill="#649ae6" d="M 364.5,33.5 C 357.167,33.5 349.833,33.5 342.5,33.5C 342.5,38.8333 342.5,44.1667 342.5,49.5C 348.026,49.1786 353.36,49.5119 358.5,50.5C 341.812,50.2581 325.146,50.5914 308.5,51.5C 308.5,46.1667 308.5,40.8333 308.5,35.5C 309.791,35.7373 310.791,35.404 311.5,34.5C 312.791,34.7373 313.791,34.404 314.5,33.5C 331.265,32.1763 347.931,32.1763 364.5,33.5 Z"/></g>
<g><path style="opacity:1" fill="#6692ee" d="M 364.5,33.5 C 369.363,33.1805 374.03,33.5139 378.5,34.5C 378.5,35.1667 378.833,35.5 379.5,35.5C 379.805,40.7616 379.471,45.9283 378.5,51C 379.416,51.2784 380.082,51.7784 380.5,52.5C 375.87,51.7705 371.203,51.4372 366.5,51.5C 364.052,50.5269 361.385,50.1936 358.5,50.5C 353.36,49.5119 348.026,49.1786 342.5,49.5C 342.5,44.1667 342.5,38.8333 342.5,33.5C 349.833,33.5 357.167,33.5 364.5,33.5 Z"/></g>
<g><path style="opacity:1" fill="#3b538b" d="M 378.5,34.5 C 383.1,34.2796 387.433,34.9462 391.5,36.5C 387.481,36.3542 383.481,36.0209 379.5,35.5C 378.833,35.5 378.5,35.1667 378.5,34.5 Z"/></g>
<g><path style="opacity:1" fill="#69aaf0" d="M 311.5,34.5 C 310.791,35.404 309.791,35.7373 308.5,35.5C 308.5,40.8333 308.5,46.1667 308.5,51.5C 305.345,51.9896 302.345,52.6562 299.5,53.5C 296.763,53.4013 294.096,53.7347 291.5,54.5C 291.5,48.5 291.5,42.5 291.5,36.5C 298.218,36.302 304.885,35.6353 311.5,34.5 Z"/></g>
<g><path style="opacity:1" fill="#6686ed" d="M 379.5,35.5 C 383.481,36.0209 387.481,36.3542 391.5,36.5C 395.952,36.6314 400.286,37.298 404.5,38.5C 406.838,40.0395 409.505,40.7062 412.5,40.5C 414.099,40.2322 415.432,40.5655 416.5,41.5C 415.5,41.5 414.5,41.5 413.5,41.5C 412.731,47.2432 412.731,52.9099 413.5,58.5C 402.607,55.9622 391.607,53.9622 380.5,52.5C 380.082,51.7784 379.416,51.2784 378.5,51C 379.471,45.9283 379.805,40.7616 379.5,35.5 Z"/></g>
<g><path style="opacity:1" fill="#35477d" d="M 404.5,38.5 C 407.495,38.2938 410.162,38.9605 412.5,40.5C 409.505,40.7062 406.838,40.0395 404.5,38.5 Z"/></g>
<g><path style="opacity:1" fill="#68b1ed" d="M 291.5,36.5 C 291.5,42.5 291.5,48.5 291.5,54.5C 289.784,54.6287 288.117,54.962 286.5,55.5C 283.219,55.4203 280.219,56.087 277.5,57.5C 274.505,57.2938 271.838,57.9605 269.5,59.5C 264.273,60.0563 259.273,61.3897 254.5,63.5C 254.5,57.8333 254.5,52.1667 254.5,46.5C 253.167,46.5 251.833,46.5 250.5,46.5C 263.639,41.4658 277.306,38.1325 291.5,36.5 Z"/></g>
<g><path style="opacity:1" fill="#3b4c8a" d="M 416.5,41.5 C 421.888,41.762 426.888,43.0954 431.5,45.5C 426.278,44.6128 421.278,43.2795 416.5,41.5 Z"/></g>
<g><path style="opacity:1" fill="#6479eb" d="M 416.5,41.5 C 421.278,43.2795 426.278,44.6128 431.5,45.5C 438.921,46.8625 445.921,49.1958 452.5,52.5C 451.5,52.5 450.5,52.5 449.5,52.5C 449.5,58.1667 449.5,63.8333 449.5,69.5C 437.621,65.429 425.621,61.7624 413.5,58.5C 412.731,52.9099 412.731,47.2432 413.5,41.5C 414.5,41.5 415.5,41.5 416.5,41.5 Z"/></g>
<g><path style="opacity:1" fill="#457b9d" d="M 250.5,46.5 C 246.498,48.6098 242.165,49.9431 237.5,50.5C 241.502,48.3902 245.835,47.0569 250.5,46.5 Z"/></g>
<g><path style="opacity:1" fill="#192739" d="M 358.5,50.5 C 361.385,50.1936 364.052,50.5269 366.5,51.5C 344.116,51.0433 321.783,51.71 299.5,53.5C 302.345,52.6562 305.345,51.9896 308.5,51.5C 325.146,50.5914 341.812,50.2581 358.5,50.5 Z"/></g>
<g><path style="opacity:1" fill="#69beef" d="M 250.5,46.5 C 251.833,46.5 253.167,46.5 254.5,46.5C 254.5,52.1667 254.5,57.8333 254.5,63.5C 242.849,67.0495 231.516,71.3829 220.5,76.5C 220.666,70.4908 220.499,64.4908 220,58.5C 218.103,60.0163 215.936,60.683 213.5,60.5C 221.18,56.6006 229.18,53.2673 237.5,50.5C 242.165,49.9431 246.498,48.6098 250.5,46.5 Z"/></g>
<g><path style="opacity:1" fill="#28445d" d="M 286.5,55.5 C 283.781,56.913 280.781,57.5797 277.5,57.5C 280.219,56.087 283.219,55.4203 286.5,55.5 Z"/></g>
<g><path style="opacity:1" fill="#253f55" d="M 277.5,57.5 C 275.095,58.7682 272.428,59.4349 269.5,59.5C 271.838,57.9605 274.505,57.2938 277.5,57.5 Z"/></g>
<g><path style="opacity:1" fill="#636ce9" d="M 452.5,52.5 C 463.897,56.0102 474.564,61.0102 484.5,67.5C 483.193,73.7343 483.193,80.0676 484.5,86.5C 472.73,80.9803 461.063,75.3136 449.5,69.5C 449.5,63.8333 449.5,58.1667 449.5,52.5C 450.5,52.5 451.5,52.5 452.5,52.5 Z"/></g>
<g><path style="opacity:1" fill="#6264ea" d="M 484.5,67.5 C 486.5,68.1667 488.5,68.8333 490.5,69.5C 490.973,70.9063 491.973,71.573 493.5,71.5C 497.732,73.4632 501.732,75.7966 505.5,78.5C 504.182,81.2575 503.515,84.4242 503.5,88C 503.537,91.5829 503.87,95.0829 504.5,98.5C 500.9,96.8899 497.566,94.8899 494.5,92.5C 494.027,91.0937 493.027,90.427 491.5,90.5C 490.167,89.8333 488.833,89.1667 487.5,88.5C 487.027,87.0937 486.027,86.427 484.5,86.5C 483.193,80.0676 483.193,73.7343 484.5,67.5 Z"/></g>
<g><path style="opacity:1" fill="#6acaef" d="M 220.5,76.5 C 207.715,82.3914 195.382,89.0581 183.5,96.5C 184.123,89.7453 183.456,83.412 181.5,77.5C 191.525,70.8185 202.191,65.1518 213.5,60.5C 215.936,60.683 218.103,60.0163 220,58.5C 220.499,64.4908 220.666,70.4908 220.5,76.5 Z"/></g>
<g><path style="opacity:1" fill="#2e346e" d="M 490.5,69.5 C 492.027,69.427 493.027,70.0937 493.5,71.5C 491.973,71.573 490.973,70.9063 490.5,69.5 Z"/></g>
<g><path style="opacity:1" fill="#615ce8" d="M 505.5,78.5 C 518.362,86.0368 530.362,94.7035 541.5,104.5C 532.682,105.493 523.682,105.827 514.5,105.5C 510.779,103.646 507.446,101.313 504.5,98.5C 503.87,95.0829 503.537,91.5829 503.5,88C 503.515,84.4242 504.182,81.2575 505.5,78.5 Z"/></g>
<g><path style="opacity:1" fill="#2c326b" d="M 484.5,86.5 C 486.027,86.427 487.027,87.0937 487.5,88.5C 485.973,88.573 484.973,87.9063 484.5,86.5 Z"/></g>
<g><path style="opacity:1" fill="#6ad5ee" d="M 181.5,77.5 C 183.456,83.412 184.123,89.7453 183.5,96.5C 178.992,99.2533 174.659,102.253 170.5,105.5C 161.318,105.827 152.318,105.493 143.5,104.5C 155.05,93.9538 167.716,84.9538 181.5,77.5 Z"/></g>
<g><path style="opacity:1" fill="#323778" d="M 491.5,90.5 C 493.027,90.427 494.027,91.0937 494.5,92.5C 492.973,92.573 491.973,91.9063 491.5,90.5 Z"/></g>
<g><path style="opacity:1" fill="#4b97aa" d="M 143.5,104.5 C 152.318,105.493 161.318,105.827 170.5,105.5C 170.5,106.167 170.167,106.5 169.5,106.5C 160.318,106.827 151.318,106.493 142.5,105.5C 142.5,104.833 142.833,104.5 143.5,104.5 Z"/></g>
<g><path style="opacity:1" fill="#4647a8" d="M 541.5,104.5 C 541.833,104.5 542.167,104.5 542.5,104.5C 533.895,106.471 524.895,107.138 515.5,106.5C 514.833,106.5 514.5,106.167 514.5,105.5C 523.682,105.827 532.682,105.493 541.5,104.5 Z"/></g>
<g><path style="opacity:1" fill="#15292f" d="M 142.5,105.5 C 151.318,106.493 160.318,106.827 169.5,106.5C 160.325,107.822 150.992,107.822 141.5,106.5C 141.624,105.893 141.957,105.56 142.5,105.5 Z"/></g>
<g><path style="opacity:1" fill="#141630" d="M 542.5,104.5 C 543.404,105.209 543.737,106.209 543.5,107.5C 533.985,107.827 524.652,107.494 515.5,106.5C 524.895,107.138 533.895,106.471 542.5,104.5 Z"/></g>
<g><path style="opacity:1" fill="#49a4a4" d="M 444.5,155.5 C 443.596,154.791 443.263,153.791 443.5,152.5C 438.706,151.903 434.373,152.57 430.5,154.5C 429.596,153.791 429.263,152.791 429.5,151.5C 434.5,151.5 439.5,151.5 444.5,151.5C 444.5,152.833 444.5,154.167 444.5,155.5 Z"/></g>
<g><path style="opacity:1" fill="#49a4a4" d="M 526.5,154.5 C 522.627,152.57 518.294,151.903 513.5,152.5C 513.737,153.791 513.404,154.791 512.5,155.5C 512.5,154.167 512.5,152.833 512.5,151.5C 517.5,151.5 522.5,151.5 527.5,151.5C 527.737,152.791 527.404,153.791 526.5,154.5 Z"/></g>
<g><path style="opacity:1" fill="#6aeced" d="M 444.5,155.5 C 454.382,215.456 464.048,275.456 473.5,335.5C 476.5,335.5 479.5,335.5 482.5,335.5C 492.933,275.566 502.933,215.566 512.5,155.5C 513.404,154.791 513.737,153.791 513.5,152.5C 518.294,151.903 522.627,152.57 526.5,154.5C 515.825,216.882 504.825,279.215 493.5,341.5C 505.759,406.462 517.759,471.462 529.5,536.5C 524.833,536.5 520.167,536.5 515.5,536.5C 505.472,474.364 494.805,412.364 483.5,350.5C 480.167,350.5 476.833,350.5 473.5,350.5C 461.857,412.297 451.19,474.297 441.5,536.5C 436.833,536.5 432.167,536.5 427.5,536.5C 439.336,471.486 451.336,406.486 463.5,341.5C 452.22,279.208 441.22,216.875 430.5,154.5C 434.373,152.57 438.706,151.903 443.5,152.5C 443.263,153.791 443.596,154.791 444.5,155.5 Z"/></g>
<g><path style="opacity:1" fill="#305e6d" d="M 169.5,582.5 C 160.318,582.173 151.318,582.507 142.5,583.5C 141.957,583.44 141.624,583.107 141.5,582.5C 150.992,581.178 160.325,581.178 169.5,582.5 Z"/></g>
<g><path style="opacity:1" fill="#2d326d" d="M 515.5,582.5 C 524.675,581.178 534.008,581.178 543.5,582.5C 543.376,583.107 543.043,583.44 542.5,583.5C 533.682,582.507 524.682,582.173 515.5,582.5 Z"/></g>
<g><path style="opacity:1" fill="#6bd2f0" d="M 142.5,583.5 C 151.318,582.507 160.318,582.173 169.5,582.5C 177.472,587.489 185.472,592.489 193.5,597.5C 194.774,604.296 194.774,610.963 193.5,617.5C 175.324,607.913 158.324,596.58 142.5,583.5 Z"/></g>
<g><path style="opacity:1" fill="#635dec" d="M 515.5,582.5 C 524.682,582.173 533.682,582.507 542.5,583.5C 528.845,594.993 514.178,604.993 498.5,613.5C 497.347,607.681 497.181,601.681 498,595.5C 498.717,594.956 499.217,594.289 499.5,593.5C 504.448,589.352 509.782,585.686 515.5,582.5 Z"/></g>
<g><path style="opacity:1" fill="#6369ec" d="M 499.5,593.5 C 499.217,594.289 498.717,594.956 498,595.5C 497.181,601.681 497.347,607.681 498.5,613.5C 487.376,621.062 475.376,627.062 462.5,631.5C 461.186,629.085 460.519,626.252 460.5,623C 460.542,619.749 460.875,616.583 461.5,613.5C 474.443,607.362 487.11,600.695 499.5,593.5 Z"/></g>
<g><path style="opacity:1" fill="#6ac3ef" d="M 193.5,597.5 C 205.461,604.647 217.794,610.98 230.5,616.5C 231.125,619.583 231.458,622.749 231.5,626C 231.481,629.252 230.814,632.085 229.5,634.5C 216.874,629.968 204.874,624.302 193.5,617.5C 194.774,610.963 194.774,604.296 193.5,597.5 Z"/></g>
<g><path style="opacity:1" fill="#6475ec" d="M 461.5,613.5 C 460.875,616.583 460.542,619.749 460.5,623C 460.519,626.252 461.186,629.085 462.5,631.5C 451.641,636.585 440.307,640.585 428.5,643.5C 426.55,638.265 425.883,632.598 426.5,626.5C 438.169,622.386 449.835,618.052 461.5,613.5 Z"/></g>
<g><path style="opacity:1" fill="#68b6ee" d="M 230.5,616.5 C 242.24,620.524 253.907,624.524 265.5,628.5C 265.032,634.329 264.365,639.996 263.5,645.5C 251.695,643.009 240.362,639.342 229.5,634.5C 230.814,632.085 231.481,629.252 231.5,626C 231.458,622.749 231.125,619.583 230.5,616.5 Z"/></g>
<g><path style="opacity:1" fill="#69b0ee" d="M 265.5,628.5 C 269.965,629.033 274.298,630.033 278.5,631.5C 279.452,637.075 279.786,642.741 279.5,648.5C 278.5,648.5 277.5,648.5 276.5,648.5C 271.88,648.26 267.547,647.26 263.5,645.5C 264.365,639.996 265.032,634.329 265.5,628.5 Z"/></g>
<g><path style="opacity:1" fill="#6582ee" d="M 426.5,626.5 C 425.883,632.598 426.55,638.265 428.5,643.5C 416.897,647.44 404.897,650.107 392.5,651.5C 391.5,651.5 390.5,651.5 389.5,651.5C 389.5,646.167 389.5,640.833 389.5,635.5C 391.786,635.405 393.786,634.738 395.5,633.5C 405.783,631.043 416.116,628.71 426.5,626.5 Z"/></g>
<g><path style="opacity:1" fill="#67a8ed" d="M 278.5,631.5 C 287.958,633.18 297.291,634.847 306.5,636.5C 304.833,636.5 303.167,636.5 301.5,636.5C 301.214,642.259 301.548,647.925 302.5,653.5C 293.568,652.579 284.901,650.913 276.5,648.5C 277.5,648.5 278.5,648.5 279.5,648.5C 279.786,642.741 279.452,637.075 278.5,631.5 Z"/></g>
<g><path style="opacity:1" fill="#68a0f1" d="M 306.5,636.5 C 309.609,636.264 312.609,636.597 315.5,637.5C 321.97,638.696 328.637,639.362 335.5,639.5C 335.5,644.833 335.5,650.167 335.5,655.5C 324.43,655.73 313.43,655.063 302.5,653.5C 301.548,647.925 301.214,642.259 301.5,636.5C 303.167,636.5 304.833,636.5 306.5,636.5 Z"/></g>
<g><path style="opacity:1" fill="#668eee" d="M 395.5,633.5 C 393.786,634.738 391.786,635.405 389.5,635.5C 389.5,640.833 389.5,646.167 389.5,651.5C 390.5,651.5 391.5,651.5 392.5,651.5C 380.758,653.868 368.758,655.201 356.5,655.5C 355.551,650.26 355.218,644.927 355.5,639.5C 362.073,639.154 368.407,638.154 374.5,636.5C 381.474,635.408 388.474,634.408 395.5,633.5 Z"/></g>
<g><path style="opacity:1" fill="#6796ed" d="M 374.5,636.5 C 368.407,638.154 362.073,639.154 355.5,639.5C 355.218,644.927 355.551,650.26 356.5,655.5C 349.5,655.5 342.5,655.5 335.5,655.5C 335.5,650.167 335.5,644.833 335.5,639.5C 328.637,639.362 321.97,638.696 315.5,637.5C 335.198,638.986 354.865,638.653 374.5,636.5 Z"/></g>
</svg>
