<svg xmlns="http://www.w3.org/2000/svg" version="1.1" xmlns:xlink="http://www.w3.org/1999/xlink" xmlns:svgjs="http://svgjs.dev/svgjs" width="308" height="304" viewBox="0 0 2000 1247"><g transform="matrix(1,0,0,1,-1.2121212121212466,0.504858299595071)"><svg viewBox="0 0 396 247" data-background-color="#000000" preserveAspectRatio="xMidYMid meet" height="1247" width="2000" xmlns="http://www.w3.org/2000/svg" xmlns:xlink="http://www.w3.org/1999/xlink"><g id="tight-bounds" transform="matrix(1,0,0,1,0.2400000000000091,-0.09999999999999432)"><svg viewBox="0 0 395.52 247.2" height="247.2" width="395.52"><rect width="395.52" height="247.2" fill="url(#0ec5958d-158b-4c49-8866-02e013de5b02)" mask="url(#3490c619-8317-495c-98b6-e308697f4499)" data-fill-palette-color="tertiary"></rect><g><svg></svg></g><g><svg viewBox="0 0 395.52 247.2" height="247.2" width="395.52"><g transform="matrix(1,0,0,1,177.47028749999998,47.215199999999996)"><svg viewBox="0 0 40.579425 152.7696" height="152.7696" width="40.579425"><g><svg viewBox="0 0 40.579425 152.7696" height="152.7696" width="40.579425"><g><svg viewBox="0 0 40.579425 152.7696" height="152.7696" width="40.579425"><g><svg viewBox="0 0 40.579425 152.7696" height="152.7696" width="40.579425"><g id="textblocktransform"><svg viewBox="0 0 40.579425 152.7696" height="152.7696" width="40.579425" id="textblock"><g><svg viewBox="0 0 40.579425 152.7696" height="152.7696" width="40.579425"><g transform="matrix(1,0,0,1,0,0)"><svg width="40.579425" viewBox="1.13 -40 10.620000000000001 40" height="152.7696" data-palette-color="#6ef4f5"><path d="M2.58 0L1.13 0 4.9-20.2 1.35-40 2.83-40 4.35-30.53 6-20.85 6.88-20.85 8.53-30.53 10.05-40 11.53-40 7.98-20.18 11.75 0 10.28 0 8.63-9.9 6.88-19.4 6-19.4 4.25-9.9 2.58 0Z" opacity="1" transform="matrix(1,0,0,1,0,0)" fill="#6ef4f5" class="wordmark-text-0" data-fill-palette-color="primary" id="text-0"></path></svg></g></svg></g></svg></g></svg></g></svg></g></svg></g></svg></g><g><path d="M143.89 0c30.402 0 58.24 10.976 79.768 29.183l-11.147 0c-19.26-14.022-42.974-22.294-68.621-22.295-25.647 0-49.361 8.272-68.621 22.295l-11.148 0c21.528-18.206 49.366-29.183 79.769-29.183zM143.89 247.2c-30.402 0-58.24-10.976-79.768-29.183l11.147 0c19.26 14.022 42.974 22.294 68.621 22.295 25.647 0 49.361-8.272 68.621-22.295l11.147 0c-21.528 18.206-49.366 29.183-79.768 29.183z" fill="url(#0ec5958d-158b-4c49-8866-02e013de5b02)" stroke="transparent" data-fill-palette-color="tertiary"></path></g></svg></g><defs></defs><mask id="3490c619-8317-495c-98b6-e308697f4499"><g id="SvgjsG2326"><svg viewBox="0 0 395.52 247.2" height="247.2" width="395.52"><g><svg></svg></g><g><svg viewBox="0 0 395.52 247.2" height="247.2" width="395.52"><g transform="matrix(1,0,0,1,177.47028749999998,47.215199999999996)"><svg viewBox="0 0 40.579425 152.7696" height="152.7696" width="40.579425"><g><svg viewBox="0 0 40.579425 152.7696" height="152.7696" width="40.579425"><g><svg viewBox="0 0 40.579425 152.7696" height="152.7696" width="40.579425"><g><svg viewBox="0 0 40.579425 152.7696" height="152.7696" width="40.579425"><g id="SvgjsG2325"><svg viewBox="0 0 40.579425 152.7696" height="152.7696" width="40.579425" id="SvgjsSvg2324"><g><svg viewBox="0 0 40.579425 152.7696" height="152.7696" width="40.579425"><g transform="matrix(1,0,0,1,0,0)"><svg width="40.579425" viewBox="1.13 -40 10.620000000000001 40" height="152.7696" data-palette-color="#6ef4f5"><path d="M2.58 0L1.13 0 4.9-20.2 1.35-40 2.83-40 4.35-30.53 6-20.85 6.88-20.85 8.53-30.53 10.05-40 11.53-40 7.98-20.18 11.75 0 10.28 0 8.63-9.9 6.88-19.4 6-19.4 4.25-9.9 2.58 0Z" opacity="1" transform="matrix(1,0,0,1,0,0)" fill="black" class="wordmark-text-0" id="SvgjsPath2323"></path></svg></g></svg></g></svg></g></svg></g></svg></g></svg></g></svg></g><g><path d="M143.89 0c30.402 0 58.24 10.976 79.768 29.183l-11.147 0c-19.26-14.022-42.974-22.294-68.621-22.295-25.647 0-49.361 8.272-68.621 22.295l-11.148 0c21.528-18.206 49.366-29.183 79.769-29.183zM143.89 247.2c-30.402 0-58.24-10.976-79.768-29.183l11.147 0c19.26 14.022 42.974 22.294 68.621 22.295 25.647 0 49.361-8.272 68.621-22.295l11.147 0c-21.528 18.206-49.366 29.183-79.768 29.183z" fill="white" stroke="transparent"></path></g></svg></g><defs><mask></mask></defs></svg><rect width="395.52" height="247.2" fill="black" stroke="none" visibility="hidden"></rect></g></mask><linearGradient x1="0" x2="1" y1="0.578" y2="0.595" id="0ec5958d-158b-4c49-8866-02e013de5b02"><stop stop-color="#6ee2f5" offset="0"></stop><stop stop-color="#6454f0" offset="1"></stop></linearGradient></svg><rect width="395.52" height="247.2" fill="none" stroke="none" visibility="hidden"></rect></g></svg></g></svg>