<svg xmlns="http://www.w3.org/2000/svg" version="1.1" xmlns:xlink="http://www.w3.org/1999/xlink" xmlns:svgjs="http://svgjs.dev/svgjs" width="128" height="128" viewBox="0 0 128 128"><g transform="matrix(0.8046875,0,0,0.8046875,12.333870967741937,12.333870967741937)"><svg viewBox="0 0 155 155" data-background-color="#000000" preserveAspectRatio="xMidYMid meet" height="128" width="128" xmlns="http://www.w3.org/2000/svg" xmlns:xlink="http://www.w3.org/1999/xlink"><g id="tight-bounds" transform="matrix(1,0,0,1,0.25,0.25)"><svg viewBox="0 0 154.5 154.5" height="154.5" width="154.5"><rect width="154.5" height="154.5" fill="url(#81ce5b01-d3bc-43d9-80d9-14f7d416a30a)" mask="url(#dd16fc25-a4fb-4de4-a7da-12599e27c0f7)" data-fill-palette-color="tertiary"></rect><g><svg></svg></g><g><svg viewBox="0 0 154.5 154.5" height="154.5" width="154.5"><g transform="matrix(1,0,0,1,69.413098546875,47.746371)"><svg viewBox="0 0 15.673802906249998 59.00725799999999" height="59.00725799999999" width="15.673802906249998"><g><svg viewBox="0 0 15.673802906249998 59.00725799999999" height="59.00725799999999" width="15.673802906249998"><g><svg viewBox="0 0 15.673802906249998 59.00725799999999" height="59.00725799999999" width="15.673802906249998"><g id="textblocktransform"><svg viewBox="0 0 15.673802906249998 59.00725799999999" height="59.00725799999999" width="15.673802906249998" id="textblock"><g><svg viewBox="0 0 15.673802906249998 59.00725799999999" height="59.00725799999999" width="15.673802906249998"><g transform="matrix(1,0,0,1,0,0)"><svg width="15.673802906249998" viewBox="1.13 -40 10.620000000000001 40" height="59.00725799999999" data-palette-color="#6ef4f5"><path d="M2.58 0L1.13 0 4.9-20.2 1.35-40 2.83-40 4.35-30.53 6-20.85 6.88-20.85 8.53-30.53 10.05-40 11.53-40 7.98-20.18 11.75 0 10.28 0 8.63-9.9 6.88-19.4 6-19.4 4.25-9.9 2.58 0Z" opacity="1" transform="matrix(1,0,0,1,0,0)" fill="#6ef4f5" class="wordmark-text-0" data-fill-palette-color="primary" id="text-0"></path></svg></g></svg></g></svg></g></svg></g></svg></g></svg></g><g><path d="M47.435 33.816A7.837 7.837 0 0 1 107.065 33.816L101.743 33.816A2.516 2.516 0 0 0 52.757 33.816L47.435 33.816M47.435 120.684A7.837 7.837 0 0 0 107.065 120.684L101.743 120.684A2.516 2.516 0 0 1 52.757 120.684L47.435 120.684" fill="url(#81ce5b01-d3bc-43d9-80d9-14f7d416a30a)" stroke="transparent" data-fill-palette-color="tertiary"></path></g></svg></g><defs></defs><mask id="dd16fc25-a4fb-4de4-a7da-12599e27c0f7"><g id="SvgjsG1367"><svg viewBox="0 0 154.5 154.5" height="154.5" width="154.5"><g><svg></svg></g><g><svg viewBox="0 0 154.5 154.5" height="154.5" width="154.5"><g transform="matrix(1,0,0,1,69.413098546875,47.746371)"><svg viewBox="0 0 15.673802906249998 59.00725799999999" height="59.00725799999999" width="15.673802906249998"><g><svg viewBox="0 0 15.673802906249998 59.00725799999999" height="59.00725799999999" width="15.673802906249998"><g><svg viewBox="0 0 15.673802906249998 59.00725799999999" height="59.00725799999999" width="15.673802906249998"><g id="SvgjsG1366"><svg viewBox="0 0 15.673802906249998 59.00725799999999" height="59.00725799999999" width="15.673802906249998" id="SvgjsSvg1365"><g><svg viewBox="0 0 15.673802906249998 59.00725799999999" height="59.00725799999999" width="15.673802906249998"><g transform="matrix(1,0,0,1,0,0)"><svg width="15.673802906249998" viewBox="1.13 -40 10.620000000000001 40" height="59.00725799999999" data-palette-color="#6ef4f5"><path d="M2.58 0L1.13 0 4.9-20.2 1.35-40 2.83-40 4.35-30.53 6-20.85 6.88-20.85 8.53-30.53 10.05-40 11.53-40 7.98-20.18 11.75 0 10.28 0 8.63-9.9 6.88-19.4 6-19.4 4.25-9.9 2.58 0Z" opacity="1" transform="matrix(1,0,0,1,0,0)" fill="black" class="wordmark-text-0" id="SvgjsPath1364"></path></svg></g></svg></g></svg></g></svg></g></svg></g></svg></g><g><path d="M47.435 33.816A7.837 7.837 0 0 1 107.065 33.816L101.743 33.816A2.516 2.516 0 0 0 52.757 33.816L47.435 33.816M47.435 120.684A7.837 7.837 0 0 0 107.065 120.684L101.743 120.684A2.516 2.516 0 0 1 52.757 120.684L47.435 120.684" fill="white" stroke="transparent"></path></g></svg></g><defs><mask></mask></defs></svg><rect width="154.5" height="154.5" fill="black" stroke="none" visibility="hidden"></rect></g></mask><linearGradient x1="0" x2="1" y1="0.578" y2="0.595" id="81ce5b01-d3bc-43d9-80d9-14f7d416a30a"><stop stop-color="#6ee2f5" offset="0"></stop><stop stop-color="#6454f0" offset="1"></stop></linearGradient></svg><rect width="154.5" height="154.5" fill="none" stroke="none" visibility="hidden"></rect></g></svg></g></svg>