{
	"asset":{
		"generator":"Khronos glTF Blender I/O v4.0.44",
		"version":"2.0"
	},
	"scene":0,
	"scenes":[
		{
			"name":"Scene",
			"nodes":[
				0
			]
		}
	],
	"nodes":[
		{
			"mesh":0,
			"name":"Curve"
		}
	],
	"materials":[
		{
			"doubleSided":true,
			"name":"SVGMat.001",
			"pbrMetallicRoughness":{
				"baseColorFactor":[
					0,
					0,
					0,
					1
				],
				"metallicFactor":0,
				"roughnessFactor":0.4000000059604645
			}
		}
	],
	"meshes":[
		{
			"name":"Curve",
			"primitives":[
				{
					"attributes":{
						"POSITION":0,
						"NORMAL":1,
						"TEXCOORD_0":2
					},
					"indices":3,
					"material":0
				}
			]
		}
	],
	"accessors":[
		{
			"bufferView":0,
			"componentType":5126,
			"count":285015,
			"max":[
				0.14435961842536926,
				0.009999999776482582,
				0.14432913064956665
			],
			"min":[
				-0.0001411139965057373,
				-0.009999999776482582,
				-0.0001410841941833496
			],
			"type":"VEC3"
		},
		{
			"bufferView":1,
			"componentType":5126,
			"count":285015,
			"type":"VEC3"
		},
		{
			"bufferView":2,
			"componentType":5126,
			"count":285015,
			"type":"VEC2"
		},
		{
			"bufferView":3,
			"componentType":5125,
			"count":710400,
			"type":"SCALAR"
		}
	],
	"bufferViews":[
		{
			"buffer":0,
			"byteLength":3420180,
			"byteOffset":0,
			"target":34962
		},
		{
			"buffer":0,
			"byteLength":3420180,
			"byteOffset":3420180,
			"target":34962
		},
		{
			"buffer":0,
			"byteLength":2280120,
			"byteOffset":6840360,
			"target":34962
		},
		{
			"buffer":0,
			"byteLength":2841600,
			"byteOffset":9120480,
			"target":34963
		}
	],
	"buffers":[
		{
			"byteLength":11962080,
			"uri":"CSI.bin"
		}
	]
}
