{
  "accessors": [
    {
      "bufferView": 1,
      "componentType": 5126,
      "count": 9800,
      "max": [
        10.999505996704102,
        10.999505996704102,
        1.9995059967041016
      ],
      "min": [
        -10.999505996704102,
        -10.999505996704102,
        -0.9995059967041016
      ],
      "type": "VEC3"
    },
    {
      "bufferView": 1,
      "byteOffset": 117600,
      "componentType": 5126,
      "count": 9800,
      "max": [
        0.9999983310699463,
        0.9999983906745911,
        1.0
      ],
      "min": [
        -0.9999464154243469,
        -0.9999983310699463,
        -1.0
      ],
      "type": "VEC3"
    },
    {
      "bufferView": 0,
      "componentType": 5125,
      "count": 58788,
      "type": "SCALAR"
    }
  ],
  "asset": {
    "extras": {
      "author": "sandyonmars (https://sketchfab.com/sandyonmars)",
      "license": "CC-BY-4.0 (http://creativecommons.org/licenses/by/4.0/)",
      "source": "https://sketchfab.com/3d-models/an-empty-silver-coin-b0325d31bc0d4b2eb040c1e67ca5918e",
      "title": "An empty silver coin"
    },
    "generator": "Sketchfab-15.46.0",
    "version": "2.0"
  },
  "bufferViews": [
    {
      "buffer": 0,
      "byteLength": 235152,
      "name": "floatBufferViews",
      "target": 34963
    },
    {
      "buffer": 0,
      "byteLength": 235200,
      "byteOffset": 235152,
      "byteStride": 12,
      "name": "floatBufferViews",
      "target": 34962
    }
  ],
  "buffers": [
    {
      "byteLength": 470352,
      "uri": "scene.bin"
    }
  ],
  "materials": [
    {
      "doubleSided": true,
      "name": "Scene_-_Root",
      "pbrMetallicRoughness": {
        "metallicFactor": 0.0,
        "roughnessFactor": 0.6
      }
    }
  ],
  "meshes": [
    {
      "name": "Object_0",
      "primitives": [
        {
          "attributes": {
            "NORMAL": 1,
            "POSITION": 0
          },
          "indices": 2,
          "material": 0,
          "mode": 4
        }
      ]
    }
  ],
  "nodes": [
    {
      "children": [
        1
      ],
      "matrix": [
        1.0,
        0.0,
        0.0,
        0.0,
        0.0,
        2.220446049250313e-16,
        -1.0,
        0.0,
        0.0,
        1.0,
        2.220446049250313e-16,
        0.0,
        0.0,
        0.0,
        0.0,
        1.0
      ],
      "name": "Sketchfab_model"
    },
    {
      "children": [
        2
      ],
      "name": "coin.stl.cleaner.materialmerger.gles"
    },
    {
      "mesh": 0,
      "name": "Object_2"
    }
  ],
  "scene": 0,
  "scenes": [
    {
      "name": "Sketchfab_Scene",
      "nodes": [
        0
      ]
    }
  ]
}
